<?xml version="1.0" encoding="utf-8"?>
<!-- Generator: Adobe Illustrator 26.5.0, SVG Export Plug-In . SVG Version: 6.00 Build 0)  -->
<svg version="1.1" id="Layer_1" xmlns="http://www.w3.org/2000/svg" xmlns:xlink="http://www.w3.org/1999/xlink" x="0px" y="0px"
	 viewBox="0 0 138 44" style="enable-background:new 0 0 138 44;" xml:space="preserve">
<style type="text/css">
	.st0{fill:#181A20;}
	.st1{clip-path:url(#SVGID_00000145768570076170331500000009958869034497234617_);}
	.st2{fill:#FFFFFF;}
	.st3{stroke:#000000;stroke-miterlimit:10;}
	.st4{font-family:'MonotypeCorsiva';}
	.st5{font-size:18.3357px;}
</style>
<path class="st0" d="M20,0h4c11,0,20,9,20,20v4c0,11-9,20-20,20h-4C9,44,0,35,0,24v-4C0,9,9,0,20,0z"/>
<g>
	<defs>
		<rect id="SVGID_1_" x="10" y="10" width="24" height="24"/>
	</defs>
	<clipPath id="SVGID_00000010276699828756601260000005615253214749848481_">
		<use xlink:href="#SVGID_1_"  style="overflow:visible;"/>
	</clipPath>
	<g style="clip-path:url(#SVGID_00000010276699828756601260000005615253214749848481_);">
		<path class="st2" d="M32.8,22.1l-1.1-1v9.2c0,1.5-1.3,2.8-2.8,2.8h-3.4c0.3-0.3,0.6-0.6,0.9-1c0.3-0.3,0.5-0.6,0.7-0.9h1.7
			c0.5,0,0.9-0.4,0.9-0.9V19.5L22,12.8l-7.8,6.8v10.8c0,0.5,0.4,0.9,0.9,0.9h1.7c0.2,0.3,0.5,0.6,0.7,0.9c0.3,0.3,0.6,0.7,0.9,1
			h-3.4c-1.5,0-2.8-1.3-2.8-2.8v-9.2l-1.1,1L10,20.7l12-10.4l12,10.4L32.8,22.1z M22,24.2c-0.8,0-1.4,0.6-1.4,1.4
			c0,0.8,0.6,1.4,1.4,1.4s1.4-0.6,1.4-1.4C23.4,24.8,22.8,24.2,22,24.2z M27.4,25.9c0,1.5-0.8,3.2-2.5,5.1c-1.2,1.3-2.3,2.3-2.3,2.3
			L22,33.8l-0.6-0.5c0,0-1.2-1-2.3-2.3c-1.6-1.9-2.5-3.6-2.5-5.1v-0.3c0-3,2.4-5.4,5.4-5.4c3,0,5.4,2.4,5.4,5.4V25.9z M25.5,25.6
			c0-1.9-1.6-3.5-3.5-3.5c-1.9,0-3.5,1.6-3.5,3.5v0.3c0,1,0.7,2.4,2,3.8c0.6,0.6,1.1,1.2,1.5,1.6c1.3-1.2,3.5-3.6,3.5-5.4L25.5,25.6
			L25.5,25.6z"/>
	</g>
</g>
<text transform="matrix(1 0 0 1 52.4369 25.8373)" class="st3 st4 st5">Kayzprop</text>
</svg>
