<?xml version="1.0" encoding="utf-8"?>
<!-- Generator: Adobe Illustrator 26.5.0, SVG Export Plug-In . SVG Version: 6.00 Build 0)  -->
<svg version="1.1" id="Layer_1" xmlns="http://www.w3.org/2000/svg" xmlns:xlink="http://www.w3.org/1999/xlink" x="0px" y="0px"
	 viewBox="0 0 5.3 4.6" style="enable-background:new 0 0 5.3 4.6;" xml:space="preserve">
<style type="text/css">
	.st0{fill:#006680;}
	.st1{fill:#FF6600;}
	.st2{font-family:'Arthines';}
	.st3{font-size:0.6472px;}
	.st4{font-size:1.0579px;}
</style>
<g>
	<g>
		<polygon class="st0" points="2,0.6 0.3,2.3 0.3,2.3 0.7,2.3 2,1 2.5,1.5 2.9,1.5 		"/>
		<path class="st0" d="M1.5,2.2v0.4h0.4V2.2H1.5z M2,2.2v0.4h0.4V2.2H2z M1.5,2.8v0.4h0.4V2.8H1.5z M2,2.8v0.4h0.4V2.8H2z"/>
		<path class="st1" d="M3.1,1.7v0.4h0.4V1.7H3.1z M3.7,1.7v0.4h0.4V1.7H3.7z M3.1,2.2v0.4h0.4V2.2H3.1z M3.7,2.2v0.4h0.4V2.2H3.7z"
			/>
		<polygon class="st1" points="1.9,2 3.6,0.3 5.3,2 4.9,2 3.6,0.7 2.3,2 		"/>
	</g>
	<text transform="matrix(0.9074 -0.4202 0.4202 0.9074 2.7415 3.8586)" class="st1 st2 st3">Propel</text>
	<text transform="matrix(0.9849 0.173 -0.173 0.9849 0.3856 3.5416)" class="st0 st2 st4">Kayz</text>
</g>
</svg>
